HIERARCHY
ROOT Hips
{
	OFFSET -224.215500 91.524040 295.415894
	CHANNELS 6 Xposition Yposition Zposition Zrotation Yrotation Xrotation 
	JOINT LeftUpLeg
	{
		OFFSET 0.103456 1.857823 10.548498
		CHANNELS 3 Zrotation Yrotation Xrotation
		JOINT LeftLeg
		{
			OFFSET 43.500000 -0.000019 -0.000002
			CHANNELS 3 Zrotation Yrotation Xrotation
			JOINT LeftFoot
			{
				OFFSET 42.372204 0.000027 -0.000005
				CHANNELS 3 Zrotation Yrotation Xrotation
				JOINT LeftToe
				{
					OFFSET 17.299999 -0.000001 0.000000
					CHANNELS 3 Zrotation Yrotation Xrotation
					End Site
					{
						OFFSET 0.000000 0.000000 0.000000
					}
				}
			}
		}
	}
	JOINT RightUpLeg
	{
		OFFSET 0.103456 1.857824 -10.548502
		CHANNELS 3 Zrotation Yrotation Xrotation
		JOINT RightLeg
		{
			OFFSET 43.500038 -0.000015 0.000017
			CHANNELS 3 Zrotation Yrotation Xrotation
			JOINT RightFoot
			{
				OFFSET 42.372261 -0.000015 0.000015
				CHANNELS 3 Zrotation Yrotation Xrotation
				JOINT RightToe
				{
					OFFSET 17.299984 -0.000007 -0.000002
					CHANNELS 3 Zrotation Yrotation Xrotation
					End Site
					{
						OFFSET 0.000000 0.000000 0.000000
					}
				}
			}
		}
	}
	JOINT Spine
	{
		OFFSET 6.901968 -2.603745 -0.000005
		CHANNELS 3 Zrotation Yrotation Xrotation
		JOINT Spine1
		{
			OFFSET 12.588100 0.000014 0.000013
			CHANNELS 3 Zrotation Yrotation Xrotation
			JOINT Spine2
			{
				OFFSET 12.343204 0.000008 -0.000010
				CHANNELS 3 Zrotation Yrotation Xrotation
				JOINT Neck
				{
					OFFSET 25.832903 0.000002 0.000010
					CHANNELS 3 Zrotation Yrotation Xrotation
					JOINT Head
					{
						OFFSET 11.766598 0.000015 -0.000000
						CHANNELS 3 Zrotation Yrotation Xrotation
						End Site
						{
							OFFSET 0.000000 0.000000 0.000000
						}
					}
				}
				JOINT LeftShoulder
				{
					OFFSET 19.745903 -1.480366 6.000109
					CHANNELS 3 Zrotation Yrotation Xrotation
					JOINT LeftArm
					{
						OFFSET 11.284134 0.000001 -0.000017
						CHANNELS 3 Zrotation Yrotation Xrotation
						JOINT LeftForeArm
						{
							OFFSET 33.000042 0.000010 0.000015
							CHANNELS 3 Zrotation Yrotation Xrotation
							JOINT LeftHand
							{
								OFFSET 25.200022 0.000012 0.000000
								CHANNELS 3 Zrotation Yrotation Xrotation
								End Site
								{
									OFFSET 0.000000 0.000000 0.000000
								}
							}
						}
					}
				}
				JOINT RightShoulder
				{
					OFFSET 19.746094 -1.480373 -6.000069
					CHANNELS 3 Zrotation Yrotation Xrotation
					JOINT RightArm
					{
						OFFSET 11.284146 -0.000006 -0.000018
						CHANNELS 3 Zrotation Yrotation Xrotation
						JOINT RightForeArm
						{
							OFFSET 33.000103 0.000006 0.000016
							CHANNELS 3 Zrotation Yrotation Xrotation
							JOINT RightHand
							{
								OFFSET 25.199755 0.000126 0.000423
								CHANNELS 3 Zrotation Yrotation Xrotation
								End Site
								{
									OFFSET 0.000000 0.000000 0.000000
								}
							}
						}
					}
				}
			}
		}
	}
}
MOTION
Frames: 10
Frame Time: 0.033333
39.329391 89.122597 451.806000 86.842433 3.074234 165.123047 168.712311 -9.358796 177.433152 -65.958618 3.023466 6.347225 69.938808 -6.310800 -4.765860 21.454538 0.003088 0.000000 157.501376 0.664094 -176.859757 -31.373364 -1.688568 -0.299564 84.478601 1.497529 6.235340 21.454555 -0.003111 -0.000018 6.526887 1.154989 -1.801415 3.004810 2.355455 -3.573522 2.687105 2.333977 -3.587657 -4.688782 -2.062811 -13.320850 -19.031561 -6.782200 -11.496812 139.023036 -84.333268 39.689973 -35.166759 62.633723 17.207251 -32.846680 -18.288484 1.499076 14.950294 -8.948301 -6.328810 -178.782824 75.826390 2.655808 -16.495383 -53.414217 8.243293 -49.906679 11.084349 -1.516479 12.094286 -6.396848 8.507233 
41.875092 89.546257 453.591400 87.213907 3.757828 167.759036 162.864222 -9.352404 -179.708506 -74.136472 2.948369 2.853633 71.996245 -4.285101 -6.514843 21.454539 0.003092 -0.000000 160.910350 -0.021699 -175.557623 -30.276070 -1.538015 0.615845 86.097670 0.780107 6.282276 21.454557 -0.003108 -0.000017 6.566429 1.136048 -1.682613 3.086944 2.315732 -3.335524 2.769134 2.295697 -3.349434 -3.155731 -1.432808 -14.002867 -19.310220 -7.310209 -11.839059 140.078014 -83.914659 38.660063 -33.350086 62.019620 21.151230 -28.192241 -14.282757 1.149986 15.801682 -2.511882 0.582872 -174.864372 75.954477 6.665692 -17.229403 -51.168973 10.165984 -54.619172 10.543870 -1.636468 12.486067 -7.093357 14.482381 
44.566170 90.112793 455.121613 87.653402 3.471115 169.302973 157.644973 -7.883697 -179.760976 -79.040609 3.466234 -0.679536 73.510341 -1.729044 -6.707060 21.454539 0.003091 0.000001 164.357410 -0.014495 -174.282126 -28.494446 -1.601720 0.800513 87.215348 0.570651 6.158811 21.454555 -0.003108 -0.000018 6.580376 0.870633 -1.379435 3.127046 1.777528 -2.735574 2.809188 1.761118 -2.746247 -1.485107 -0.967749 -14.340428 -20.506516 -7.445589 -11.994932 146.928038 -83.598742 31.785986 -29.302946 61.425510 26.869464 -25.770423 -11.957341 0.959441 15.705125 3.011555 8.459568 -173.246751 76.209700 8.322439 -17.846202 -49.636327 13.532999 -57.836901 9.889938 -1.705363 13.256241 -6.532078 18.990221 
47.352001 90.704247 456.425293 87.856846 2.740899 169.765008 153.240949 -6.329894 177.915267 -80.533668 3.992977 -3.388019 73.986699 0.704963 -5.146976 21.454562 0.003092 -0.000000 167.687278 0.075700 -173.683364 -26.048091 -1.851405 0.807354 87.838842 0.518016 6.051974 21.454560 -0.003105 -0.000017 6.533710 0.502099 -0.921060 3.046501 1.027783 -1.828895 2.728515 1.016861 -1.835063 0.037527 -0.973867 -14.216090 -21.761737 -7.079759 -11.989192 156.969031 -83.608305 21.663897 -23.297603 61.138861 34.575090 -25.187492 -11.247821 0.904457 15.546853 5.971941 12.104723 -174.358105 76.983902 7.193999 -18.628777 -49.102592 17.887997 -58.992023 9.616059 -1.728551 13.855297 -5.996712 21.125994 
50.210388 91.029259 457.589600 87.697170 2.409293 169.724969 149.354667 -5.469604 175.114685 -79.054337 4.106617 -4.496899 73.599380 1.849035 -3.983362 21.454548 0.003092 0.000000 170.719841 -0.332598 -173.414405 -23.544200 -2.146366 0.810553 88.444639 0.497108 6.092461 21.454563 -0.003106 -0.000018 6.433904 0.246435 -0.395584 2.853269 0.502303 -0.785101 2.535193 0.497690 -0.788117 1.194414 -1.307686 -13.578209 -22.818130 -6.543123 -11.599427 168.470919 -83.747681 10.054006 -15.376588 60.865059 43.370578 -26.179774 -11.678338 0.948044 15.304967 6.471120 11.235769 -177.430857 78.117925 4.073706 -19.494757 -49.018837 21.687794 -58.384491 10.112951 -1.740205 13.998754 -6.029710 22.303023 
53.174610 90.975121 458.677307 87.262654 2.506030 169.662964 146.046793 -5.110000 172.941633 -75.460907 3.507850 -4.170994 74.700502 2.033302 -2.811904 21.454548 0.003092 0.000000 173.322675 -1.005997 -172.788377 -21.670151 -2.384604 0.584932 89.517982 0.631151 6.285359 21.454558 -0.003107 -0.000017 6.307626 0.120824 0.119615 2.602672 0.238937 0.241854 2.284581 0.240530 0.240408 1.789526 -1.784829 -12.442249 -23.726170 -6.054362 -10.697921 179.786971 -83.709228 -1.370944 -6.236627 60.028053 51.803706 -28.179305 -12.706557 1.048441 14.585746 5.343146 8.206985 178.573001 79.190900 0.024703 -20.095861 -48.923617 24.194111 -56.878571 11.050151 -1.749608 14.057454 -6.210441 23.440670 
56.263168 90.537956 459.684692 86.625841 2.861019 169.683960 143.402977 -4.972504 171.746254 -69.727502 2.197066 -2.840427 74.628880 1.349220 -2.101735 21.454557 0.003092 0.000000 175.330082 -1.760192 -172.086835 -20.923796 -2.497806 0.305140 91.195805 0.752982 6.430960 21.454558 -0.003109 -0.000017 6.178905 0.080250 0.604266 2.345773 0.148504 1.209994 2.027742 0.155946 1.209076 1.654805 -2.479392 -10.935088 -24.462901 -5.515373 -9.478608 -170.207973 -83.364187 -11.475989 2.632410 58.391677 58.575340 -30.484828 -13.826432 1.163673 13.391014 3.505939 4.750298 174.700830 79.981700 -3.891421 -20.158808 -48.768333 25.557180 -55.263645 11.834268 -1.745644 14.418178 -6.241550 24.188589 
59.437710 89.889198 460.608704 85.805228 3.167453 169.645998 141.688859 -4.723297 170.924022 -61.541780 0.565381 -1.120269 75.661871 0.460466 -1.210497 21.454550 0.003092 -0.000000 176.841971 -2.498993 -172.099361 -20.950188 -2.568231 0.438939 93.280747 0.579858 6.725709 21.454555 -0.003107 -0.000018 6.056566 0.057356 1.061182 2.101189 0.095969 2.123200 1.783327 0.108923 2.122583 0.787096 -3.415847 -9.267679 -25.116986 -4.835446 -8.224762 -161.741871 -82.733262 -20.039041 10.138068 56.385541 63.221536 -32.479722 -14.845151 1.269831 12.280328 1.556314 1.310670 171.684099 80.507194 -6.937716 -19.638682 -48.586557 25.475433 -53.728109 12.357066 -1.727844 14.942903 -6.563365 24.757762 
62.622082 89.268333 461.454987 84.784108 3.229113 169.583980 141.069648 -4.093507 169.610140 -50.547986 -0.555342 0.191452 75.319337 -0.088155 -0.024402 21.454557 0.003092 0.000000 178.270984 -3.103104 -172.648044 -20.646627 -2.654423 0.893814 95.159227 0.208022 7.158989 21.454555 -0.003112 -0.000017 5.932777 0.015552 1.451874 1.852833 0.008640 2.903803 1.535189 0.026304 2.903699 -0.527619 -4.333040 -7.680398 -26.007252 -4.209509 -7.057008 -155.077027 -81.918762 -26.798970 16.363214 54.716256 66.003417 -33.792597 -15.832375 1.361806 11.830132 -0.256536 -1.433262 169.501253 80.849250 -9.139793 -18.589757 -48.327929 23.295009 -51.928613 12.743401 -1.693153 15.223083 -7.687917 25.849044 
65.840073 88.790337 462.253693 83.664080 3.484464 169.765021 142.048633 -2.931502 167.292602 -36.839332 -0.091500 1.024039 74.851305 -0.832191 -0.539352 21.454558 0.003091 0.000002 179.848074 -3.816605 -172.794210 -19.829776 -2.729488 1.144936 95.929133 0.044245 7.673542 21.454557 -0.003111 -0.000017 5.821747 0.047554 1.729986 1.631739 0.071681 3.460445 1.314276 0.092702 3.459950 -1.866063 -4.931578 -6.375629 -27.331502 -3.915183 -5.979313 -150.280103 -81.162045 -31.678923 22.012651 53.953481 67.436534 -34.408680 -16.841937 1.440669 12.126659 -1.876725 -2.299209 167.740034 81.161287 -10.913111 -17.114962 -48.114793 19.143485 -49.581880 12.841524 -1.623286 15.127884 -9.354018 26.946099 
